<svg width="178" height="66" fill="none" xmlns="http://www.w3.org/2000/svg"><path d="M4.741 27.892C4.741 12.817 16.961.596 32.037.596h117.802c15.075 0 27.296 12.22 27.296 27.296 0 15.075-12.221 27.296-27.296 27.296H32.037c-15.075 0-27.296-12.221-27.296-27.296Z" fill="#fff"/><path d="M3.783 59.976c8.62-10.535 5.747-11.493 7.379-17.733l11.284 8.455s-4.197 2.744-7.989 4.785c-3.012 1.62-10.674 4.493-10.674 4.493Z" fill="#fff"/><path d="M57.913 36.744c-2.264 1.307-5.048 1.96-8.35 1.96-3.691 0-6.604-1.037-8.74-3.112-2.134-2.075-3.202-4.913-3.202-8.515 0-3.651 1.172-6.62 3.517-8.904 2.354-2.294 5.452-3.442 9.293-3.442 2.474 0 4.634.35 6.48 1.048v4.684c-1.796-1.048-3.99-1.572-6.585-1.572-2.234 0-4.045.729-5.432 2.185-1.387 1.457-2.08 3.377-2.08 5.762 0 2.424.623 4.315 1.87 5.671 1.258 1.357 2.969 2.036 5.133 2.036 1.287 0 2.34-.2 3.158-.599v-4.759h-4.684v-3.965h9.622v11.522Zm3.158-6.644c0-2.724.813-4.863 2.44-6.42 1.635-1.556 3.83-2.334 6.584-2.334 2.663 0 4.778.768 6.345 2.304 1.566 1.527 2.35 3.582 2.35 6.166 0 2.713-.804 4.873-2.41 6.48-1.606 1.606-3.781 2.409-6.525 2.409-2.693 0-4.833-.768-6.42-2.305-1.576-1.546-2.364-3.646-2.364-6.3Zm4.893-.06c0 3.303 1.347 4.954 4.04 4.954 2.585 0 3.877-1.696 3.877-5.088 0-3.233-1.302-4.849-3.906-4.849-1.267 0-2.255.434-2.963 1.302-.698.868-1.048 2.095-1.048 3.681ZM91.66 36.224a129.51 129.51 0 0 1-.123-4.567V25.62c-.204.02-.45.03-.735.03h-.644c-.368 0-.705-.01-1.011-.03a2.224 2.224 0 0 1-.766-.184 1.209 1.209 0 0 1-.521-.43c-.123-.204-.184-.48-.184-.827 0-.98.735-1.471 2.206-1.471h.828c.327 0 .603.02.827.061 0-1.083.02-1.95.062-2.605.04-.654.112-1.154.214-1.502.123-.367.276-.602.46-.704.204-.123.46-.184.766-.184.327 0 .593.112.797.337.204.225.358.51.46.858.122.347.194.735.214 1.165.041.429.062.848.062 1.256 0 .286-.01.552-.031.797v.613c.286-.082.582-.123.889-.123.306-.02.602-.03.888-.03.757 0 1.339.122 1.747.368.409.224.613.602.613 1.133 0 .327-.071.593-.214.797a1.402 1.402 0 0 1-.582.43c-.225.102-.501.173-.828.214-.306.02-.644.03-1.011.03h-.705c-.266 0-.511-.02-.736-.06v2.972c0 .9-.01 1.768-.03 2.605l-.062 2.452c-.02.817-.05 1.686-.092 2.605-.02.49-.071.868-.153 1.134-.061.266-.153.47-.276.613a.822.822 0 0 1-.429.276c-.143.02-.317.03-.52.03-.369 0-.685-.122-.95-.367-.246-.266-.39-.818-.43-1.655Zm22.111 2.114c-.327 0-.592-.05-.797-.153a1.315 1.315 0 0 1-.429-.46 1.997 1.997 0 0 1-.214-.643 9.999 9.999 0 0 1-.092-.828c-.511.634-1.175 1.165-1.992 1.594-.797.43-1.819.644-3.065.644a9.441 9.441 0 0 1-2.452-.337 6.17 6.17 0 0 1-2.237-1.226c-.674-.593-1.226-1.38-1.655-2.36-.429-.981-.644-2.217-.644-3.709 0-1.164.143-2.257.429-3.279.286-1.022.715-1.91 1.288-2.666a6.413 6.413 0 0 1 2.206-1.84c.879-.449 1.911-.674 3.096-.674 1.042 0 1.971.195 2.789.583.817.368 1.552.98 2.206 1.839 0-.245.01-.49.031-.736.02-.265.071-.5.153-.705.102-.225.255-.398.46-.52.204-.144.48-.215.827-.215.307 0 .593.122.858.368.266.245.419.776.46 1.593.061 1.083.102 2.054.123 2.912.041.858.061 1.747.061 2.666 0 1.124-.01 2.156-.031 3.096-.02.94-.071 1.94-.153 3.003-.041.47-.102.848-.184 1.134-.061.266-.143.47-.245.613a.735.735 0 0 1-.368.245c-.143.041-.286.061-.429.061Zm-1.655-7.784c0-1.063-.163-1.93-.49-2.605-.307-.674-.705-1.196-1.195-1.563a3.943 3.943 0 0 0-1.533-.797 6.128 6.128 0 0 0-1.532-.215c-.736 0-1.369.133-1.9.399-.511.265-.93.633-1.257 1.103-.327.45-.572.991-.735 1.624a8.904 8.904 0 0 0-.215 2.023c0 1.798.388 3.126 1.165 3.984.796.859 1.869 1.288 3.218 1.288.796 0 1.471-.133 2.022-.399a3.792 3.792 0 0 0 1.38-1.134 4.46 4.46 0 0 0 .796-1.655 7.545 7.545 0 0 0 .276-2.053Zm6.842 5.884c-.02-.735-.041-1.593-.061-2.574-.021-.98-.041-2.043-.061-3.187 0-1.145-.011-2.35-.031-3.617v-3.892c0-1.45.01-2.697.031-3.74.02-1.041.071-1.9.153-2.574.102-.674.255-1.164.459-1.47.205-.328.491-.491.859-.491.347 0 .653.112.919.337.266.225.419.746.46 1.563.082 1.471.133 3.004.153 4.597.02 1.573.031 3.126.031 4.659v2.666c0 .838-.011 1.675-.031 2.513l-.061 2.513c-.021.858-.051 1.747-.092 2.667-.021.49-.072.868-.153 1.134-.062.265-.154.47-.276.612a.667.667 0 0 1-.429.246c-.143.04-.317.061-.521.061-.368 0-.675-.123-.92-.368-.245-.265-.388-.817-.429-1.655Zm6.793.154a32.11 32.11 0 0 1-.092-2.023c-.021-.92-.041-1.972-.062-3.157-.02-1.206-.03-2.513-.03-3.923v-4.321c0-1.737.01-3.157.03-4.26.021-1.104.082-1.972.184-2.605.102-.634.266-1.063.491-1.288.224-.245.551-.367.98-.367.368 0 .634.122.797.367.164.225.286.736.368 1.533.041.49.072 1.154.092 1.992.041.817.061 1.716.061 2.697.021.98.031 2.002.031 3.065.02 1.062.031 2.073.031 3.034v2.482l6.803-6.16c.225-.204.491-.398.797-.582a1.885 1.885 0 0 1 1.012-.307c.408 0 .715.164.919.49.204.307.307.665.307 1.073 0 .225-.041.44-.123.644-.061.184-.204.358-.429.521l-4.138 3.402 5.027 7.294c.184.245.275.521.275.828 0 .45-.143.786-.429 1.01-.286.226-.653.338-1.103.338-.327 0-.613-.061-.858-.184-.245-.122-.48-.357-.705-.705l-4.597-6.65-2.789 2.298c-.021.756-.041 1.43-.061 2.023a18.214 18.214 0 0 1-.092 1.41c-.082.715-.215 1.185-.399 1.41-.184.224-.511.337-.98.337-.47 0-.797-.113-.981-.337-.164-.225-.276-.685-.337-1.38Z" fill="#051431"/></svg>