<svg width="24" height="24" fill="none" xmlns="http://www.w3.org/2000/svg">
  <g clip-path="url(#a)">
    <mask id="b" x="13.5" y="7.7" width="3" height="13" fill="#000">
      <path fill="#fff" d="M13.5 7.7h3v13h-3z"/>
      <path d="M15.06 8.7a.56.56 0 0 0-.56.56v10.62a.56.56 0 0 0 1.12 0V9.26a.56.56 0 0 0-.56-.56Z"/>
    </mask>
    <path d="M15.06 8.7a.56.56 0 0 0-.56.56v10.62a.56.56 0 0 0 1.12 0V9.26a.56.56 0 0 0-.56-.56Z" fill="#323131"/>
    <path d="M15.06 8.7a.56.56 0 0 0-.56.56v10.62a.56.56 0 0 0 1.12 0V9.26a.56.56 0 0 0-.56-.56Z" stroke="#323131" stroke-width=".2" mask="url(#b)"/>
    <mask id="c" x="6.87" y="7.7" width="3" height="13" fill="#000">
      <path fill="#fff" d="M6.87 7.7h3v13h-3z"/>
      <path d="M8.43 8.7a.56.56 0 0 0-.56.56v10.62a.56.56 0 0 0 1.12 0V9.26a.56.56 0 0 0-.56-.56Z"/>
    </mask>
    <path d="M8.43 8.7a.56.56 0 0 0-.56.56v10.62a.56.56 0 0 0 1.12 0V9.26a.56.56 0 0 0-.56-.56Z" fill="#323131"/>
    <path d="M8.43 8.7a.56.56 0 0 0-.56.56v10.62a.56.56 0 0 0 1.12 0V9.26a.56.56 0 0 0-.56-.56Z" stroke="#323131" stroke-width=".2" mask="url(#c)"/>
    <mask id="d" x="1" y="-1" width="21" height="26" fill="#000">
      <path fill="#fff" d="M1-1h21v26H1z"/>
      <path d="M3.6 7.14V21c0 .82.3 1.59.82 2.14s1.25.87 2 .87h10.64c.76 0 1.49-.32 2.01-.87A3.1 3.1 0 0 0 19.9 21V7.14a2.15 2.15 0 0 0-.55-4.22h-2.88v-.7A2.2 2.2 0 0 0 14.24 0H9.25a2.2 2.2 0 0 0-2.23 2.22v.7H4.15a2.15 2.15 0 0 0-.55 4.22Zm13.46 15.74H6.43c-.96 0-1.71-.83-1.71-1.89V7.2h14.05V21c0 1.06-.75 1.89-1.7 1.89ZM8.15 2.22a1.08 1.08 0 0 1 1.1-1.1h5a1.08 1.08 0 0 1 1.1 1.1v.7h-7.2v-.7Zm-4 1.83h15.2a1.01 1.01 0 1 1 0 2.02H4.15a1.01 1.01 0 1 1 0-2.02Z"/>
    </mask>
    <path d="M3.6 7.14V21c0 .82.3 1.59.82 2.14s1.25.87 2 .87h10.64c.76 0 1.49-.32 2.01-.87A3.1 3.1 0 0 0 19.9 21V7.14a2.15 2.15 0 0 0-.55-4.22h-2.88v-.7A2.2 2.2 0 0 0 14.24 0H9.25a2.2 2.2 0 0 0-2.23 2.22v.7H4.15a2.15 2.15 0 0 0-.55 4.22Zm13.46 15.74H6.43c-.96 0-1.71-.83-1.71-1.89V7.2h14.05V21c0 1.06-.75 1.89-1.7 1.89ZM8.15 2.22a1.08 1.08 0 0 1 1.1-1.1h5a1.08 1.08 0 0 1 1.1 1.1v.7h-7.2v-.7Zm-4 1.83h15.2a1.01 1.01 0 1 1 0 2.02H4.15a1.01 1.01 0 1 1 0-2.02Z" fill="#323131"/>
    <path d="M3.6 7.14V21c0 .82.3 1.59.82 2.14s1.25.87 2 .87h10.64c.76 0 1.49-.32 2.01-.87A3.1 3.1 0 0 0 19.9 21V7.14a2.15 2.15 0 0 0-.55-4.22h-2.88v-.7A2.2 2.2 0 0 0 14.24 0H9.25a2.2 2.2 0 0 0-2.23 2.22v.7H4.15a2.15 2.15 0 0 0-.55 4.22Zm13.46 15.74H6.43c-.96 0-1.71-.83-1.71-1.89V7.2h14.05V21c0 1.06-.75 1.89-1.7 1.89ZM8.15 2.22a1.08 1.08 0 0 1 1.1-1.1h5a1.08 1.08 0 0 1 1.1 1.1v.7h-7.2v-.7Zm-4 1.83h15.2a1.01 1.01 0 1 1 0 2.02H4.15a1.01 1.01 0 1 1 0-2.02Z" stroke="#323131" stroke-width=".2" mask="url(#d)"/>
    <mask id="e" x="10.18" y="7.7" width="3" height="13" fill="#000">
      <path fill="#fff" d="M10.18 7.7h3v13h-3z"/>
      <path d="M11.75 8.7a.56.56 0 0 0-.57.56v10.62a.56.56 0 0 0 1.13 0V9.26a.56.56 0 0 0-.56-.56Z"/>
    </mask>
    <path d="M11.75 8.7a.56.56 0 0 0-.57.56v10.62a.56.56 0 0 0 1.13 0V9.26a.56.56 0 0 0-.56-.56Z" fill="#323131"/>
    <path d="M11.75 8.7a.56.56 0 0 0-.57.56v10.62a.56.56 0 0 0 1.13 0V9.26a.56.56 0 0 0-.56-.56Z" stroke="#323131" stroke-width=".2" mask="url(#e)"/>
  </g>
  <defs>
    <clipPath id="a">
      <path fill="#fff" d="M0 0h24v24H0z"/>
    </clipPath>
  </defs>
</svg>
