<svg width="24" height="20" viewBox="0 0 24 16" fill="none" xmlns="http://www.w3.org/2000/svg">
<path d="M15.2009 8.00076C15.2009 9.76806 13.7682 11.2007 12.0009 11.2007C10.2336 11.2007 8.8009 9.76806 8.8009 8.00076C8.8009 6.23346 10.2336 4.80078 12.0009 4.80078C13.7682 4.80078 15.2009 6.23346 15.2009 8.00076Z" fill="#323131"/>
<path fill-rule="evenodd" clip-rule="evenodd" d="M18.7794 2.10349C20.7034 3.34598 22.4198 5.08396 23.7428 7.12995C23.9099 7.38881 23.9991 7.69015 24 7.99821C24.0009 8.30627 23.9134 8.60812 23.7478 8.86794C22.4298 10.9309 20.7169 12.6754 18.7939 13.9139C16.6744 15.2784 14.3194 15.9999 11.9839 15.9999C9.59593 15.9999 7.30095 15.2999 5.16846 13.9184C3.27447 12.6929 1.57499 10.9524 0.254495 8.88594C0.0830549 8.61994 -0.00543899 8.30898 0.000258814 7.99258C0.00595662 7.67617 0.105589 7.3686 0.286495 7.10895C1.88898 4.81147 3.73397 3.02698 5.77046 1.80549C7.76744 0.607496 9.85793 0 11.9839 0C14.3009 0 16.6509 0.727495 18.7794 2.10349ZM9.33419 11.991C10.1235 12.5184 11.0516 12.7999 12.0009 12.7999C13.2735 12.7985 14.4935 12.2923 15.3934 11.3924C16.2932 10.4926 16.7994 9.27253 16.8009 7.99994C16.8009 7.0506 16.5194 6.12258 15.9919 5.33323C15.4645 4.54387 14.7149 3.92865 13.8378 3.56535C12.9607 3.20206 11.9956 3.107 11.0645 3.29221C10.1334 3.47742 9.27811 3.93457 8.60682 4.60586C7.93554 5.27714 7.47838 6.13241 7.29318 7.06352C7.10797 7.99462 7.20302 8.95973 7.56632 9.83681C7.92962 10.7139 8.54484 11.4635 9.33419 11.991Z" fill="#323131"/>
</svg>
