<svg width="37" height="36" viewBox="0 0 37 36" fill="none" xmlns="http://www.w3.org/2000/svg">
<g clip-path="url(#clip0_904_1584)">
<path d="M18.5 36C28.4411 36 36.5 27.9411 36.5 18C36.5 8.05888 28.4411 0 18.5 0C8.55888 0 0.5 8.05888 0.5 18C0.5 27.9411 8.55888 36 18.5 36Z" fill="#3B5998"/>
<path d="M23.0254 18.7046H19.8135V30.4715H14.9472V18.7046H12.6328V14.5693H14.9472V11.8933C14.9472 9.97961 15.8562 6.98303 19.8568 6.98303L23.4614 6.99811V11.0122H20.846C20.417 11.0122 19.8138 11.2265 19.8138 12.1394V14.5731H23.4505L23.0254 18.7046Z" fill="white"/>
</g>
<defs>
<clipPath id="clip0_904_1584">
<rect width="36" height="36" fill="white" transform="translate(0.5)"/>
</clipPath>
</defs>
</svg>
