<svg width="37" height="36" viewBox="0 0 37 36" fill="none" xmlns="http://www.w3.org/2000/svg">
<g clip-path="url(#clip0_915_786)">
<path d="M8.47836 21.7553L7.22525 26.4333L2.64516 26.5302C1.27639 23.9914 0.5 21.0867 0.5 18C0.5 15.0152 1.22591 12.2004 2.51262 9.72198H2.51361L6.59117 10.4695L8.37739 14.5226C8.00354 15.6126 7.79977 16.7826 7.79977 18C7.79991 19.3213 8.03926 20.5873 8.47836 21.7553Z" fill="#FBBB00"/>
<path d="M36.1853 14.6374C36.392 15.7262 36.4998 16.8508 36.4998 18C36.4998 19.2887 36.3643 20.5457 36.1062 21.7583C35.2299 25.8844 32.9404 29.4874 29.7686 32.0371L29.7676 32.0361L24.6317 31.774L23.9049 27.2364C26.0094 26.0021 27.6542 24.0706 28.5206 21.7583H18.8955V14.6374H28.661H36.1853Z" fill="#518EF8"/>
<path d="M29.7676 32.0361L29.7686 32.037C26.6839 34.5165 22.7654 36 18.4999 36C11.645 36 5.68526 32.1686 2.64502 26.5302L8.47821 21.7553C9.9983 25.8122 13.9118 28.7001 18.4999 28.7001C20.4719 28.7001 22.3194 28.167 23.9048 27.2364L29.7676 32.0361Z" fill="#28B446"/>
<path d="M29.9894 4.14394L24.1582 8.91788C22.5175 7.8923 20.578 7.29984 18.5001 7.29984C13.8082 7.29984 9.82147 10.3203 8.37753 14.5226L2.51368 9.72197H2.5127C5.50843 3.94615 11.5434 0 18.5001 0C22.8675 0 26.872 1.55573 29.9894 4.14394Z" fill="#F14336"/>
</g>
<defs>
<clipPath id="clip0_915_786">
<rect width="36" height="36" fill="white" transform="translate(0.5)"/>
</clipPath>
</defs>
</svg>
