<svg width="37" height="36" viewBox="0 0 37 36" fill="none" xmlns="http://www.w3.org/2000/svg">
<g clip-path="url(#clip0_904_1601)">
<path d="M18.5 35.9997C28.4411 35.9997 36.5 27.9408 36.5 17.9997C36.5 8.05857 28.4411 -0.000305176 18.5 -0.000305176C8.55887 -0.000305176 0.5 8.05857 0.5 17.9997C0.5 27.9408 8.55887 35.9997 18.5 35.9997Z" fill="#007AB9"/>
<path d="M29.2547 19.4481V26.8691H24.9522V19.9454C24.9522 18.207 24.331 17.0198 22.7731 17.0198C21.5843 17.0198 20.8781 17.819 20.5662 18.593C20.453 18.8696 20.4238 19.2536 20.4238 19.6416V26.8688H16.1209C16.1209 26.8688 16.1787 15.1424 16.1209 13.9285H20.4241V15.7623C20.4154 15.7767 20.4032 15.7908 20.3955 15.8046H20.4241V15.7623C20.9959 14.8825 22.0156 13.6247 24.3018 13.6247C27.1324 13.6247 29.2547 15.4741 29.2547 19.4481ZM11.6198 7.69086C10.148 7.69086 9.18506 8.65699 9.18506 9.92634C9.18506 11.1687 10.1201 12.1628 11.5633 12.1628H11.5912C13.0919 12.1628 14.025 11.1687 14.025 9.92634C13.9965 8.65699 13.0919 7.69086 11.6198 7.69086ZM9.44079 26.8691H13.742V13.9285H9.44079V26.8691Z" fill="#F1F2F2"/>
</g>
<defs>
<clipPath id="clip0_904_1601">
<rect width="36" height="36" fill="white" transform="translate(0.5)"/>
</clipPath>
</defs>
</svg>
