<svg width="76" height="76" fill="none" xmlns="http://www.w3.org/2000/svg"><g clip-path="url(#a)" fill="#051431"><path d="M19.9 32.208a4.676 4.676 0 0 0-4.67 4.67v27.369a4.675 4.675 0 0 0 4.67 4.67h36.2a4.675 4.675 0 0 0 4.67-4.67V36.878a4.676 4.676 0 0 0-4.67-4.67H19.9Zm-2.441 4.67a2.445 2.445 0 0 1 2.442-2.442h16.985v9.417h-4.128a4.55 4.55 0 0 0-2.351.651 4.618 4.618 0 0 0-4.613-4.6H17.46v-3.026Zm25.783 9.203a2.353 2.353 0 0 1 2.35 2.35v4.262a2.353 2.353 0 0 1-2.35 2.351H32.758a2.353 2.353 0 0 1-2.351-2.35v-4.262a2.353 2.353 0 0 1 2.35-2.35h10.485ZM17.46 51.677h2.756a1.114 1.114 0 1 0 0-2.228h-2.756v-7.316h8.336a2.387 2.387 0 0 1 2.384 2.384v4.931h-2.756a1.114 1.114 0 0 0 0 2.229h2.756v4.93a2.387 2.387 0 0 1-2.384 2.385h-8.336v-7.315Zm19.427 15.012H19.901a2.445 2.445 0 0 1-2.442-2.442V61.22h8.336a4.618 4.618 0 0 0 4.612-4.6 4.55 4.55 0 0 0 2.35.652h4.13v9.417h-.001Zm21.655-2.442a2.445 2.445 0 0 1-2.442 2.442H39.114v-9.417h4.128a4.55 4.55 0 0 0 2.351-.651 4.618 4.618 0 0 0 4.613 4.6h8.335v3.026Zm0-5.255h-8.336a2.387 2.387 0 0 1-2.384-2.384v-4.931h10.72v7.315Zm0-9.543h-10.72v-4.932a2.387 2.387 0 0 1 2.384-2.384h8.336v7.316Zm0-12.57v3.026h-8.336a4.618 4.618 0 0 0-4.612 4.6 4.55 4.55 0 0 0-2.35-.652h-4.13v-9.417H56.1a2.445 2.445 0 0 1 2.442 2.442Z"/><path d="M67.039 25.967c.615 0 1.114-.499 1.114-1.114v-4.045a6.625 6.625 0 0 0-1.954-4.716L52.061 1.953A6.626 6.626 0 0 0 47.345 0H14.517a6.677 6.677 0 0 0-6.67 6.67v62.66a6.677 6.677 0 0 0 6.67 6.67h46.967a6.677 6.677 0 0 0 6.669-6.67V30.062a1.114 1.114 0 1 0-2.228 0v39.27a4.446 4.446 0 0 1-4.441 4.441H14.517a4.446 4.446 0 0 1-4.442-4.441V6.669a4.446 4.446 0 0 1 4.442-4.44h32.828c1.186-.001 2.302.461 3.14 1.3l14.139 14.139a4.413 4.413 0 0 1 1.3 3.14v4.045c0 .615.5 1.114 1.115 1.114Z"/></g><defs><clipPath id="a"><path fill="#fff" d="M0 0h76v76H0z"/></clipPath></defs></svg>