<svg width="37" height="36" viewBox="0 0 37 36" fill="none" xmlns="http://www.w3.org/2000/svg">
<g clip-path="url(#clip0_904_1589)">
<path d="M18.5003 35.9997C28.4414 35.9997 36.5002 27.9409 36.5002 17.9998C36.5002 8.05881 28.4414 0 18.5003 0C8.55929 0 0.500488 8.05881 0.500488 17.9998C0.500488 27.9409 8.55929 35.9997 18.5003 35.9997Z" fill="#55ACEE"/>
<path d="M29.5257 12.9359C28.7544 13.278 27.9246 13.5093 27.0544 13.6126C27.9429 13.0803 28.6247 12.238 28.9466 11.2328C28.1152 11.7259 27.194 12.0837 26.2144 12.2766C25.4296 11.4407 24.3114 10.9183 23.0731 10.9183C20.6975 10.9183 18.7707 12.8451 18.7707 15.2208C18.7707 15.558 18.8089 15.8863 18.8827 16.2014C15.307 16.022 12.1365 14.3092 10.0143 11.7054C9.64402 12.3407 9.43161 13.0803 9.43161 13.8687C9.43161 15.361 10.1917 16.6785 11.3456 17.4498C10.6406 17.4277 9.97676 17.2342 9.39696 16.9111C9.39664 16.9294 9.39663 16.9477 9.39663 16.9657C9.39663 19.0503 10.8803 20.7891 12.8482 21.1841C12.4875 21.2829 12.1067 21.3352 11.7149 21.3352C11.437 21.3352 11.1678 21.3086 10.9053 21.2585C11.4527 22.9674 13.0413 24.2114 14.9245 24.2464C13.4517 25.4005 11.5968 26.0882 9.58049 26.0882C9.23396 26.0882 8.89063 26.0679 8.55469 26.0278C10.4577 27.249 12.7198 27.961 15.1494 27.961C23.0632 27.961 27.391 21.4051 27.391 15.7191C27.391 15.5327 27.3868 15.3469 27.3785 15.1627C28.2198 14.5563 28.9491 13.7987 29.5257 12.9359Z" fill="#F1F2F2"/>
</g>
<defs>
<clipPath id="clip0_904_1589">
<rect width="36" height="36" fill="white" transform="translate(0.5)"/>
</clipPath>
</defs>
</svg>
