<svg width="24" height="20" fill="none" xmlns="http://www.w3.org/2000/svg"><path d="M24 3.924v12.152a3.047 3.047 0 0 1-3.04 3.04h-9.821a3.047 3.047 0 0 1-3.04-3.04v-1.968a.602.602 0 1 1 1.204 0v1.968c0 1.013.827 1.84 1.84 1.84h9.817c1.013 0 1.84-.827 1.84-1.84V3.924c0-1.013-.827-1.84-1.84-1.84h-9.821c-1.014 0-1.841.827-1.841 1.84v1.968a.602.602 0 1 1-1.205 0V3.924a3.046 3.046 0 0 1 3.04-3.04h9.827A3.043 3.043 0 0 1 24 3.924Z" fill="#000"/><path d="m.176 9.574 4.108-4.108a.596.596 0 0 1 .426-.176c.157 0 .308.059.426.176a.597.597 0 0 1 0 .847L2.05 9.398h11.251a.602.602 0 1 1 0 1.204H2.047l3.084 3.085a.597.597 0 0 1 0 .847.597.597 0 0 1-.847 0L.176 10.426a.603.603 0 0 1 0-.852Z" fill="#000"/></svg>