<svg width="48" height="38" viewBox="0 0 48 38" fill="none" xmlns="http://www.w3.org/2000/svg">
<path d="M47.0688 14.7616L42.5688 9.51156C42.5041 9.43576 42.4247 9.37389 42.3353 9.32969V9.32875L24.3353 0.328748C24.231 0.276953 24.1162 0.25 23.9997 0.25C23.8833 0.25 23.7684 0.276953 23.6641 0.328748L5.66408 9.32875V9.32969C5.57477 9.37389 5.49535 9.43576 5.43065 9.51156L0.930645 14.7616C0.856477 14.8481 0.802995 14.9505 0.774255 15.0608C0.745514 15.1711 0.74227 15.2865 0.764766 15.3983C0.787263 15.51 0.834911 15.6152 0.904098 15.7058C0.973284 15.7964 1.06219 15.8701 1.16408 15.9212L5.24971 17.9631V28C5.24973 28.1393 5.28849 28.2759 5.36167 28.3944C5.43485 28.5129 5.53955 28.6088 5.66408 28.6712L23.6641 37.6712C23.7684 37.723 23.8833 37.75 23.9997 37.75C24.1162 37.75 24.231 37.723 24.3353 37.6712L42.3353 28.6712C42.4599 28.6088 42.5646 28.5129 42.6378 28.3944C42.7109 28.2759 42.7497 28.1393 42.7497 28V17.9631L46.8353 15.9212C46.9372 15.8701 47.0261 15.7964 47.0953 15.7058C47.1645 15.6152 47.2122 15.51 47.2347 15.3983C47.2572 15.2865 47.2539 15.1711 47.2252 15.0608C47.1964 14.9505 47.1429 14.8481 47.0688 14.7616ZM2.69408 15.0091L6.18815 10.9328L22.8053 19.2409L19.3113 23.3172L2.69408 15.0091ZM23.2497 35.7869L6.74971 27.5369V18.7131L19.1641 24.9212C19.3137 24.9957 19.484 25.0182 19.6478 24.9851C19.8117 24.952 19.9598 24.8652 20.0688 24.7384L23.2497 21.0278V35.7869ZM23.9997 18.1619L7.6769 10L23.9997 1.83812L40.3225 10L23.9997 18.1619ZM41.2497 27.5369L24.7497 35.7869V21.0278L27.9306 24.7384C28.0396 24.8652 28.1878 24.952 28.3516 24.9851C28.5155 25.0182 28.6857 24.9957 28.8353 24.9212L41.2497 18.7131V27.5369ZM28.6882 23.3172L25.1941 19.2409L41.8113 10.9328L45.3053 15.0091L28.6882 23.3172Z" fill="black"/>
</svg>
