<svg width="20" height="25" viewBox="0 0 20 25" fill="none" xmlns="http://www.w3.org/2000/svg">
<path d="M10 2.35181C10.9472 2.35181 11.8556 2.74689 12.5254 3.45016C13.1952 4.15342 13.5714 5.10724 13.5714 6.10181V6.85181H6.42857V6.10181C6.42857 5.10724 6.80485 4.15342 7.47462 3.45016C8.14439 2.74689 9.0528 2.35181 10 2.35181ZM15 6.85181V6.10181C15 4.70942 14.4732 3.37406 13.5355 2.3895C12.5979 1.40493 11.3261 0.851807 10 0.851807C8.67392 0.851807 7.40215 1.40493 6.46447 2.3895C5.52678 3.37406 5 4.70942 5 6.10181V6.85181H0V21.8518C0 22.6475 0.30102 23.4105 0.836838 23.9731C1.37266 24.5357 2.09938 24.8518 2.85714 24.8518H17.1429C17.9006 24.8518 18.6273 24.5357 19.1632 23.9731C19.699 23.4105 20 22.6475 20 21.8518V6.85181H15ZM1.42857 8.35181H18.5714V21.8518C18.5714 22.2496 18.4209 22.6312 18.153 22.9125C17.8851 23.1938 17.5217 23.3518 17.1429 23.3518H2.85714C2.47826 23.3518 2.1149 23.1938 1.84699 22.9125C1.57908 22.6312 1.42857 22.2496 1.42857 21.8518V8.35181Z" fill="#323131"/>
</svg>
