<svg width="24" height="24" viewBox="0 0 24 24" fill="none" xmlns="http://www.w3.org/2000/svg">
<path d="M23.2 3.19995H0.800002C0.3582 3.19995 0 3.55815 0 3.99995C0 4.44174 0.3582 4.79995 0.800002 4.79995H23.2C23.6418 4.79995 24 4.44175 24 3.99995C24 3.55814 23.6418 3.19995 23.2 3.19995Z" fill="#323131"/>
<path d="M23.2 11.2H0.800002C0.3582 11.2 0 11.5582 0 12C0 12.4417 0.3582 12.8 0.800002 12.8H23.2C23.6418 12.8 24 12.4417 24 12C24 11.5582 23.6418 11.2 23.2 11.2Z" fill="#323131"/>
<path d="M23.2 19.2H0.800002C0.3582 19.2 0 19.5582 0 20C0 20.4417 0.3582 20.8 0.800002 20.8H23.2C23.6418 20.8 24 20.4418 24 20C24 19.5582 23.6418 19.2 23.2 19.2Z" fill="#323131"/>
</svg>
