<svg width="24" height="20" viewBox="0 0 24 20" fill="none" xmlns="http://www.w3.org/2000/svg">
<path d="M4.04804 3.87497L2.10271 1.92964C1.7109 1.53783 1.70713 0.906342 2.10038 0.513095C2.4909 0.122571 3.12659 0.125091 3.51693 0.515428L20.4828 17.4813C20.8746 17.8731 20.8784 18.5046 20.4852 18.8979C20.0946 19.2884 19.4589 19.2859 19.0686 18.8955L16.3827 16.2096C15.0355 16.7213 13.5747 16.9984 11.9999 16.9984C8.42734 16.9984 5.44117 15.5726 3.03835 13.2155C2.20464 12.3976 1.50122 11.5232 0.922119 10.6472C0.570443 10.1152 0.334771 9.69333 0.210656 9.43578C0.0942446 9.19421 0.0953978 8.80015 0.210656 8.56098C0.334771 8.30342 0.570443 7.88159 0.922119 7.3496C1.50122 6.47359 2.20464 5.59912 3.03835 4.78127C3.36419 4.46163 3.70075 4.15912 4.04804 3.87497L4.04804 3.87497ZM14.5867 14.4136L13.036 12.8629C12.7055 12.9513 12.3582 12.9984 11.9999 12.9984C9.79074 12.9984 7.99988 11.2075 7.99988 8.99838C7.99988 8.64006 8.04699 8.29274 8.13536 7.96229L6.58462 6.41155C6.20978 7.19482 5.99988 8.07208 5.99988 8.99838C5.99988 12.3121 8.68617 14.9984 11.9999 14.9984C12.9262 14.9984 13.8034 14.7885 14.5867 14.4136ZM7.61707 1.78715C8.96424 1.27542 10.4251 0.998376 11.9999 0.998376C15.5724 0.998376 18.5586 2.42417 20.9614 4.78127C21.7951 5.59912 22.4985 6.47359 23.0776 7.3496C23.4293 7.88159 23.665 8.30342 23.7891 8.56098C23.9055 8.80255 23.9044 9.1966 23.7891 9.43578C23.665 9.69333 23.4293 10.1152 23.0776 10.6472C22.4985 11.5232 21.7951 12.3976 20.9614 13.2155C20.6356 13.5351 20.299 13.8376 19.9517 14.1218L17.4151 11.5852C17.79 10.8019 17.9999 9.92467 17.9999 8.99838C17.9999 5.68467 15.3136 2.99838 11.9999 2.99838C11.0736 2.99838 10.1963 3.20828 9.41304 3.58312L7.61707 1.78715ZM10.9638 5.13386C11.2942 5.04549 11.6416 4.99838 11.9999 4.99838C14.209 4.99838 15.9999 6.78924 15.9999 8.99838C15.9999 9.3567 15.9528 9.70401 15.8644 10.0345L10.9638 5.13386Z" fill="#323131"/>
</svg>
