<svg width="43" height="48" viewBox="0 0 43 48" fill="none" xmlns="http://www.w3.org/2000/svg">
<path d="M39 30.9441V10.5001C39 10.3608 38.9612 10.2242 38.888 10.1057C38.8149 9.98713 38.7101 9.89128 38.5856 9.82883L20.5856 0.828834C20.4849 0.778774 20.3743 0.751945 20.2618 0.750322C20.1494 0.7487 20.038 0.772326 19.9359 0.819459L0.435938 9.81946C0.305712 9.87923 0.195395 9.97515 0.118113 10.0958C0.0408301 10.2165 -0.000166173 10.3568 5.06233e-07 10.5001V34.5001C-0.000166173 34.6434 0.0408301 34.7837 0.118113 34.9044C0.195395 35.025 0.305712 35.1209 0.435938 35.1807L19.9359 44.1807C20.038 44.228 20.1494 44.2517 20.2618 44.25C20.3743 44.2484 20.485 44.2215 20.5856 44.1713L25.4531 41.7366C25.9913 43.0189 26.8194 44.1589 27.8723 45.0673C28.9252 45.9757 30.1743 46.6278 31.5215 46.9723C32.8688 47.3167 34.2775 47.3443 35.6372 47.0528C36.9969 46.7613 38.2706 46.1587 39.3582 45.2922C40.4459 44.4257 41.3179 43.3189 41.9059 42.0587C42.4939 40.7985 42.7818 39.4192 42.7471 38.0291C42.7124 36.6389 42.356 35.2757 41.7058 34.0464C41.0557 32.8172 40.1295 31.7553 39 30.9441V30.9441ZM28.0669 6.24665L12.0319 14.881L7.92375 12.9854L24.4041 4.41571L28.0669 6.24665ZM11.25 16.172V28.1129L7.5 26.5051V14.4413L11.25 16.172ZM20.2369 2.33258L22.7466 3.58696L6.40406 12.0845C6.34223 12.1168 6.28514 12.1575 6.23437 12.2054L2.53969 10.5001L20.2369 2.33258ZM19.5 42.3282L1.5 34.0201V11.672L6 13.7495V27.0001C6.00007 27.1468 6.04318 27.2903 6.124 27.4128C6.20482 27.5353 6.3198 27.6314 6.45469 27.6891L11.7047 29.9391C11.7979 29.9796 11.8984 30.0003 12 30.0001C12.1989 30.0001 12.3897 29.9211 12.5303 29.7804C12.671 29.6398 12.75 29.449 12.75 29.2501V16.8648L19.5 19.9801V42.3282ZM20.2369 18.6676L13.7353 15.6676L29.7075 7.06696L36.5728 10.5001L20.2369 18.6676ZM24.9844 40.2948L21 42.287V19.9632L37.5 11.7132V30.0695C35.9699 29.3688 34.2739 29.111 32.6047 29.3255C30.9355 29.54 29.3598 30.2181 28.0565 31.2829C26.7532 32.3477 25.7745 33.7565 25.2315 35.3494C24.6885 36.9424 24.6029 38.6556 24.9844 40.2948V40.2948ZM33.75 45.7501C32.2666 45.7501 30.8166 45.3102 29.5832 44.4861C28.3499 43.662 27.3886 42.4907 26.8209 41.1202C26.2532 39.7498 26.1047 38.2418 26.3941 36.7869C26.6835 35.332 27.3978 33.9957 28.4467 32.9468C29.4956 31.8979 30.832 31.1836 32.2868 30.8942C33.7417 30.6048 35.2497 30.7533 36.6201 31.321C37.9906 31.8886 39.1619 32.8499 39.986 34.0833C40.8101 35.3167 41.25 36.7667 41.25 38.2501C41.2477 40.2385 40.4568 42.1448 39.0507 43.5508C37.6447 44.9569 35.7384 45.7478 33.75 45.7501V45.7501Z" fill="#727272"/>
<path d="M36.9697 36.2197L33 40.1894L31.2804 38.4697C31.1397 38.329 30.9489 38.25 30.75 38.25C30.5511 38.25 30.3603 38.329 30.2197 38.4697C30.079 38.6103 30 38.8011 30 39C30 39.1989 30.079 39.3897 30.2197 39.5304L32.4697 41.7804C32.5393 41.85 32.622 41.9053 32.713 41.943C32.804 41.9807 32.9015 42.0001 33 42.0001C33.0985 42.0001 33.196 41.9807 33.287 41.943C33.378 41.9053 33.4607 41.85 33.5304 41.7804L38.0304 37.2804C38.1 37.2107 38.1553 37.128 38.1929 37.037C38.2306 36.946 38.25 36.8485 38.25 36.75C38.25 36.6515 38.2306 36.554 38.1929 36.463C38.1553 36.372 38.1 36.2893 38.0304 36.2197C37.9607 36.15 37.878 36.0948 37.787 36.0571C37.696 36.0194 37.5985 36 37.5 36C37.4015 36 37.304 36.0194 37.213 36.0571C37.122 36.0948 37.0393 36.15 36.9697 36.2197V36.2197Z" fill="#727272"/>
</svg>