<svg width="" height="" viewBox="0 0 40 48" fill="none" xmlns="http://www.w3.org/2000/svg">
<path d="M38.8356 9.82883L20.8356 0.828834C20.7349 0.778774 20.6243 0.751945 20.5118 0.750322C20.3994 0.7487 20.288 0.772326 20.1859 0.819459L0.685938 9.81946C0.555712 9.87923 0.445396 9.97515 0.368113 10.0958C0.29083 10.2165 0.249834 10.3568 0.250001 10.5001V37.5001C0.249834 37.6434 0.29083 37.7837 0.368113 37.9044C0.445396 38.025 0.555712 38.1209 0.685938 38.1807L20.1859 47.1807C20.288 47.228 20.3994 47.2517 20.5118 47.25C20.6243 47.2484 20.735 47.2215 20.8356 47.1713L38.8356 38.1713C38.9602 38.1089 39.0649 38.013 39.138 37.8945C39.2112 37.776 39.25 37.6394 39.25 37.5001V10.5001C39.25 10.3608 39.2112 10.2242 39.138 10.1057C39.0649 9.98713 38.9602 9.89128 38.8356 9.82883ZM28.3169 6.24665L12.2819 14.881L8.17375 12.9854L24.6541 4.41571L28.3169 6.24665ZM11.5 16.172V28.1129L7.75 26.5051V14.4413L11.5 16.172ZM20.4869 2.33258L22.9966 3.58696L6.65406 12.0845C6.59238 12.117 6.53531 12.1577 6.48438 12.2054L2.78969 10.5001L20.4869 2.33258ZM19.75 45.3282L1.75 37.0201V11.672L6.25 13.7495V27.0001C6.25007 27.1468 6.29318 27.2903 6.374 27.4128C6.45482 27.5353 6.5698 27.6314 6.70469 27.6891L11.9547 29.9391C12.0479 29.9796 12.1484 30.0003 12.25 30.0001C12.4489 30.0001 12.6397 29.9211 12.7803 29.7804C12.921 29.6398 13 29.449 13 29.2501V16.8648L19.75 19.9801V45.3282ZM20.4869 18.6676L13.9853 15.6676L29.9575 7.06696L36.8228 10.5001L20.4869 18.6676ZM37.75 37.037L21.25 45.287V19.9632L37.75 11.7132V37.037Z" fill="#727272"/>
</svg>
