<svg width="130" height="48" fill="none" xmlns="http://www.w3.org/2000/svg"><path d="M3.48 20.032C3.48 8.97 12.448 0 23.512 0h86.456C121.031 0 130 8.969 130 20.032c0 11.064-8.969 20.033-20.032 20.033H23.512c-11.064 0-20.032-8.969-20.032-20.033Z" fill="#051431"/><path d="M2.777 43.58c6.326-7.733 4.217-8.435 5.415-13.015l8.282 6.205s-3.081 2.014-5.864 3.511c-2.21 1.19-7.833 3.298-7.833 3.298Z" fill="#051431"/><path d="M42.503 26.778c-1.662.96-3.705 1.439-6.128 1.439-2.71 0-4.847-.762-6.414-2.285-1.567-1.522-2.35-3.606-2.35-6.249 0-2.68.86-4.858 2.58-6.534 1.728-1.684 4.002-2.526 6.82-2.526 1.816 0 3.402.256 4.756.768v3.438c-1.318-.769-2.929-1.153-4.832-1.153-1.64 0-2.97.534-3.987 1.603-1.018 1.07-1.527 2.479-1.527 4.229 0 1.779.458 3.166 1.373 4.162.923.996 2.178 1.494 3.767 1.494.945 0 1.717-.147 2.318-.44v-3.492H35.44v-2.91h7.062v8.456Zm2.317-4.876c0-2 .597-3.57 1.79-4.712 1.201-1.142 2.812-1.713 4.833-1.713 1.955 0 3.507.564 4.657 1.691 1.149 1.12 1.724 2.629 1.724 4.525 0 1.992-.59 3.577-1.768 4.756-1.18 1.178-2.775 1.768-4.789 1.768-1.977 0-3.547-.564-4.712-1.691-1.156-1.135-1.735-2.677-1.735-4.624Zm3.592-.044c0 2.423.988 3.635 2.965 3.635 1.896 0 2.844-1.245 2.844-3.734 0-2.372-.955-3.558-2.866-3.558-.93 0-1.655.318-2.175.955-.512.637-.768 1.538-.768 2.702ZM67.27 26.864a94.897 94.897 0 0 1-.09-3.351v-4.431a5.53 5.53 0 0 1-.54.022h-.473c-.27 0-.517-.007-.742-.022a1.632 1.632 0 0 1-.562-.135.888.888 0 0 1-.383-.315c-.09-.15-.135-.353-.135-.608 0-.72.54-1.08 1.62-1.08h.607c.24 0 .443.016.608.046 0-.795.014-1.432.044-1.912s.083-.847.158-1.102c.09-.27.202-.443.337-.518.15-.09.338-.135.563-.135.24 0 .434.083.584.248.15.165.263.375.338.63.09.255.142.54.157.854.03.315.045.623.045.923 0 .21-.007.405-.022.585v.45c.21-.06.427-.09.652-.09.225-.016.442-.023.652-.023.555 0 .983.09 1.282.27.3.165.45.442.45.832 0 .24-.052.435-.157.585a1.03 1.03 0 0 1-.428.315 2.105 2.105 0 0 1-.607.157c-.225.015-.472.023-.742.023h-.517a3.02 3.02 0 0 1-.54-.045v2.181c0 .66-.008 1.297-.023 1.912l-.045 1.8c-.015.6-.037 1.237-.067 1.912-.015.36-.053.637-.113.832a1.044 1.044 0 0 1-.202.45.603.603 0 0 1-.315.202 2.76 2.76 0 0 1-.382.023.992.992 0 0 1-.698-.27c-.18-.195-.285-.6-.315-1.215Zm16.227 1.552c-.24 0-.435-.038-.585-.112a.968.968 0 0 1-.315-.338 1.462 1.462 0 0 1-.157-.472 7.51 7.51 0 0 1-.068-.607c-.375.464-.862.854-1.462 1.17-.584.314-1.334.472-2.249.472a6.93 6.93 0 0 1-1.8-.248 4.53 4.53 0 0 1-1.641-.9c-.495-.434-.9-1.012-1.215-1.732-.315-.72-.472-1.627-.472-2.721 0-.855.105-1.657.315-2.407.21-.75.525-1.402.944-1.957.435-.57.975-1.02 1.62-1.35.645-.33 1.402-.494 2.271-.494.765 0 1.448.142 2.047.427.6.27 1.14.72 1.62 1.35 0-.18.007-.36.022-.54a1.75 1.75 0 0 1 .113-.517.839.839 0 0 1 .337-.383c.15-.105.353-.157.608-.157.224 0 .434.09.63.27.194.18.307.57.337 1.17.045.794.075 1.506.09 2.136.03.63.045 1.282.045 1.957 0 .825-.008 1.582-.023 2.272-.015.69-.052 1.424-.112 2.204-.03.345-.075.622-.135.832a1.275 1.275 0 0 1-.18.45.54.54 0 0 1-.27.18 1.14 1.14 0 0 1-.315.045Zm-1.215-5.713c0-.78-.12-1.417-.36-1.912-.224-.495-.517-.877-.877-1.147a2.894 2.894 0 0 0-1.124-.585 4.504 4.504 0 0 0-1.125-.157c-.54 0-1.005.097-1.395.292a2.526 2.526 0 0 0-.922.81c-.24.33-.42.727-.54 1.192-.104.45-.157.945-.157 1.484 0 1.32.285 2.295.855 2.925.585.63 1.372.944 2.361.944.585 0 1.08-.097 1.485-.292.42-.21.757-.488 1.012-.833.27-.344.465-.75.585-1.214.135-.48.202-.982.202-1.507Zm5.022 4.319c-.015-.54-.03-1.17-.045-1.89s-.03-1.5-.045-2.34c0-.839-.008-1.724-.023-2.653v-2.857c0-1.064.008-1.98.023-2.744.015-.765.052-1.394.112-1.89.075-.494.188-.854.338-1.079.15-.24.36-.36.63-.36.254 0 .48.083.674.248.195.165.307.547.337 1.147.06 1.08.098 2.204.113 3.374.015 1.154.022 2.294.022 3.418v1.957c0 .615-.007 1.23-.022 1.845l-.045 1.844c-.015.63-.038 1.282-.068 1.957-.015.36-.052.637-.112.832a1.047 1.047 0 0 1-.202.45.489.489 0 0 1-.315.18c-.105.03-.233.045-.383.045a.916.916 0 0 1-.675-.27c-.18-.195-.284-.6-.314-1.215Zm4.985.112c-.03-.33-.053-.825-.068-1.485-.015-.674-.03-1.447-.045-2.316-.015-.885-.022-1.845-.022-2.88v-3.17c0-1.275.007-2.318.022-3.127.015-.81.06-1.447.135-1.912.075-.465.195-.78.36-.945.165-.18.405-.27.72-.27.27 0 .465.09.585.27.12.165.21.54.27 1.125.03.36.052.847.067 1.462.03.6.045 1.26.045 1.98.015.719.022 1.469.022 2.248.016.78.023 1.522.023 2.227v1.822l4.993-4.52c.165-.15.36-.293.585-.428.24-.15.487-.225.742-.225.3 0 .525.12.675.36.15.225.225.487.225.787 0 .165-.03.322-.09.472-.045.135-.15.263-.315.383l-3.036 2.496 3.689 5.354c.134.18.202.382.202.607 0 .33-.105.577-.315.742-.21.165-.48.248-.81.248-.24 0-.45-.046-.629-.135-.18-.09-.353-.263-.518-.518l-3.374-4.88-2.047 1.686c-.014.555-.03 1.05-.044 1.485-.016.435-.038.78-.068 1.034-.06.525-.157.87-.292 1.035-.135.165-.375.247-.72.247s-.585-.082-.72-.247c-.12-.165-.202-.502-.247-1.012Z" fill="#fff"/></svg>