<svg width="49" height="48" fill="none" xmlns="http://www.w3.org/2000/svg">
  <g clip-path="url(#a)" fill="#D75F5C">
    <path d="M24.5 0C11.27 0 .5 10.77.5 24s10.77 24 24 24 24-10.77 24-24-10.77-24-24-24Zm0 45.4A21.34 21.34 0 0 1 5.53 33.92 21.43 21.43 0 0 1 24.5 2.6a21.52 21.52 0 0 1 19.31 12.18A21.43 21.43 0 0 1 24.5 45.4Z"/>
    <path d="M27.04 30.42c2.84.6 5.4 2.2 7.2 4.5l2.04-1.58a14.93 14.93 0 0 0-8.71-5.46 15.03 15.03 0 0 0-14.86 5.46l2.05 1.59a12.42 12.42 0 0 1 12.28-4.5ZM16.5 21.24a2.6 2.6 0 1 0 0-5.19 2.6 2.6 0 0 0 0 5.2ZM32.55 21.24a2.6 2.6 0 1 0 0-5.19 2.6 2.6 0 0 0 0 5.2Z"/>
  </g>
  <defs>
    <clipPath id="a">
      <path fill="#fff" transform="translate(.5)" d="M0 0h48v48H0z"/>
    </clipPath>
  </defs>
</svg>
