<svg width="48" height="37" viewBox="0 0 48 37" fill="none" xmlns="http://www.w3.org/2000/svg">
<path d="M39 29.5C39.445 29.5 39.88 29.632 40.25 29.8792C40.62 30.1264 40.9084 30.4778 41.0787 30.889C41.249 31.3001 41.2936 31.7525 41.2068 32.189C41.1199 32.6254 40.9057 33.0263 40.591 33.341C40.2763 33.6557 39.8754 33.87 39.439 33.9568C39.0025 34.0436 38.5501 33.999 38.139 33.8287C37.7278 33.6584 37.3764 33.37 37.1292 33C36.882 32.63 36.75 32.195 36.75 31.75C36.7507 31.1535 36.9879 30.5816 37.4098 30.1598C37.8316 29.7379 38.4035 29.5007 39 29.5ZM39 32.5C39.1483 32.5 39.2933 32.456 39.4167 32.3736C39.54 32.2912 39.6361 32.1741 39.6929 32.037C39.7497 31.9 39.7645 31.7492 39.7356 31.6037C39.7067 31.4582 39.6352 31.3246 39.5303 31.2197C39.4254 31.1148 39.2918 31.0434 39.1463 31.0144C39.0008 30.9855 38.85 31.0003 38.713 31.0571C38.5759 31.1139 38.4588 31.21 38.3764 31.3333C38.294 31.4567 38.25 31.6017 38.25 31.75C38.2502 31.9488 38.3293 32.1395 38.4699 32.2801C38.6105 32.4207 38.8012 32.4998 39 32.5Z" fill="#727272"/>
<path d="M8.25 29.5C8.695 29.5 9.13002 29.632 9.50003 29.8792C9.87004 30.1264 10.1584 30.4778 10.3287 30.889C10.499 31.3001 10.5436 31.7525 10.4568 32.189C10.3699 32.6254 10.1557 33.0263 9.84099 33.341C9.52632 33.6557 9.12541 33.87 8.68895 33.9568C8.25249 34.0436 7.80009 33.999 7.38896 33.8287C6.97782 33.6584 6.62642 33.37 6.37919 33C6.13195 32.63 5.99999 32.195 5.99999 31.75C6.00066 31.1535 6.23793 30.5816 6.65974 30.1598C7.08155 29.7379 7.65346 29.5007 8.25 29.5ZM8.25 32.5C8.39833 32.5 8.54334 32.456 8.66667 32.3736C8.79001 32.2912 8.88614 32.1741 8.94291 32.037C8.99967 31.9 9.01452 31.7492 8.98559 31.6037C8.95665 31.4582 8.88522 31.3246 8.78033 31.2197C8.67544 31.1148 8.5418 31.0434 8.39631 31.0144C8.25083 30.9855 8.10003 31.0003 7.96298 31.0571C7.82594 31.1139 7.7088 31.21 7.62639 31.3333C7.54398 31.4567 7.49999 31.6017 7.49999 31.75C7.50022 31.9488 7.57931 32.1395 7.71991 32.2801C7.86051 32.4207 8.05115 32.4998 8.25 32.5Z" fill="#727272"/>
<path d="M36.75 24.25H34.5C34.3011 24.25 34.1103 24.171 33.9697 24.0303C33.829 23.8897 33.75 23.6989 33.75 23.5C33.75 23.3011 33.829 23.1103 33.9697 22.9697C34.1103 22.829 34.3011 22.75 34.5 22.75H36.75C36.9489 22.75 37.1397 22.829 37.2803 22.9697C37.421 23.1103 37.5 23.3011 37.5 23.5C37.5 23.6989 37.421 23.8897 37.2803 24.0303C37.1397 24.171 36.9489 24.25 36.75 24.25Z" fill="#727272"/>
<path d="M3.375 0.25H29.625C30.321 0.250769 30.9882 0.527578 31.4803 1.01969C31.9724 1.51181 32.2492 2.17904 32.25 2.875V11.5H40.5C40.6235 11.5002 40.745 11.5307 40.8539 11.5889C40.9627 11.6471 41.0556 11.7312 41.1244 11.8337L47.1244 20.8337C47.2061 20.9572 47.2498 21.1019 47.25 21.25V31.75C47.25 31.9489 47.171 32.1397 47.0303 32.2803C46.8897 32.421 46.6989 32.5 46.5 32.5H43.4362C43.2592 33.5485 42.7165 34.5004 41.9044 35.1868C41.0923 35.8733 40.0633 36.2499 39 36.2499C37.9367 36.2499 36.9077 35.8733 36.0956 35.1868C35.2835 34.5004 34.7408 33.5485 34.5637 32.5H12.6862C12.5092 33.5485 11.9665 34.5004 11.1544 35.1868C10.3423 35.8733 9.31334 36.2499 8.25 36.2499C7.18666 36.2499 6.15769 35.8733 5.3456 35.1868C4.53352 34.5004 3.99081 33.5485 3.81375 32.5H1.5C1.30109 32.5 1.11032 32.421 0.969669 32.2803C0.829018 32.1397 0.75 31.9489 0.75 31.75V2.875C0.750771 2.17904 1.02758 1.51181 1.5197 1.01969C2.01181 0.527578 2.67904 0.250769 3.375 0.25ZM41.5988 15.25H35.25V20.5H45.0984L41.5988 15.25ZM45.75 25H44.25C44.0511 25 43.8603 25.079 43.7197 25.2197C43.579 25.3603 43.5 25.5511 43.5 25.75C43.5 25.9489 43.579 26.1397 43.7197 26.2803C43.8603 26.421 44.0511 26.5 44.25 26.5H45.75V25ZM39 34.75C39.5933 34.75 40.1734 34.5741 40.6667 34.2444C41.1601 33.9148 41.5446 33.4462 41.7716 32.898C41.9987 32.3499 42.0581 31.7467 41.9424 31.1647C41.8266 30.5828 41.5409 30.0482 41.1213 29.6287C40.7018 29.2091 40.1672 28.9234 39.5853 28.8076C39.0033 28.6919 38.4001 28.7513 37.8519 28.9784C37.3038 29.2054 36.8352 29.5899 36.5056 30.0833C36.1759 30.5766 36 31.1567 36 31.75C36.0009 32.5454 36.3173 33.3079 36.8797 33.8703C37.4421 34.4327 38.2046 34.7491 39 34.75ZM32.25 31H34.5637C34.7408 29.9515 35.2835 28.9996 36.0956 28.3132C36.9077 27.6267 37.9367 27.2501 39 27.2501C40.0633 27.2501 41.0923 27.6267 41.9044 28.3132C42.7165 28.9996 43.2592 29.9515 43.4362 31H45.75V28H44.25C43.6533 28 43.081 27.7629 42.659 27.341C42.2371 26.919 42 26.3467 42 25.75C42 25.1533 42.2371 24.581 42.659 24.159C43.081 23.7371 43.6533 23.5 44.25 23.5H45.75V22H34.5C34.3011 22 34.1103 21.921 33.9697 21.7803C33.829 21.6397 33.75 21.4489 33.75 21.25V14.5C33.75 14.3011 33.829 14.1103 33.9697 13.9697C34.1103 13.829 34.3011 13.75 34.5 13.75H40.5984L40.0988 13H32.25V31ZM8.25 34.75C8.84335 34.75 9.42336 34.5741 9.91671 34.2444C10.4101 33.9148 10.7946 33.4462 11.0216 32.898C11.2487 32.3499 11.3081 31.7467 11.1924 31.1647C11.0766 30.5828 10.7909 30.0482 10.3713 29.6287C9.95176 29.2091 9.41721 28.9234 8.83527 28.8076C8.25333 28.6919 7.65013 28.7513 7.10195 28.9784C6.55377 29.2054 6.08524 29.5899 5.75559 30.0833C5.42595 30.5766 5.25 31.1567 5.25 31.75C5.25089 32.5454 5.56725 33.3079 6.12967 33.8703C6.69208 34.4327 7.45462 34.7491 8.25 34.75ZM2.25 31H3.81375C3.99081 29.9515 4.53352 28.9996 5.3456 28.3132C6.15769 27.6267 7.18666 27.2501 8.25 27.2501C9.31334 27.2501 10.3423 27.6267 11.1544 28.3132C11.9665 28.9996 12.5092 29.9515 12.6862 31H30.75V25H2.25V31ZM2.25 23.5H30.75V2.875C30.7498 2.57671 30.6311 2.2907 30.4202 2.07978C30.2093 1.86885 29.9233 1.75025 29.625 1.75H3.375C3.07671 1.75025 2.7907 1.86885 2.57978 2.07978C2.36885 2.2907 2.25025 2.57671 2.25 2.875V23.5Z" fill="#727272"/>
<path d="M28.95 9.1L22.95 13.6C22.8386 13.6836 22.7061 13.7345 22.5674 13.747C22.4286 13.7595 22.2892 13.7331 22.1646 13.6708C22.04 13.6085 21.9352 13.5128 21.862 13.3943C21.7888 13.2758 21.75 13.1393 21.75 13V11.5H10.5C10.3011 11.5 10.1103 11.421 9.96967 11.2803C9.82902 11.1397 9.75 10.9489 9.75 10.75V6.25C9.75 6.05109 9.82902 5.86032 9.96967 5.71967C10.1103 5.57902 10.3011 5.5 10.5 5.5H21.75V4C21.75 3.86072 21.7888 3.72418 21.862 3.6057C21.9352 3.48722 22.04 3.39147 22.1646 3.32918C22.2892 3.26689 22.4286 3.24052 22.5674 3.25303C22.7061 3.26554 22.8386 3.31643 22.95 3.4L28.95 7.9C29.0431 7.96986 29.1187 8.06045 29.1708 8.16459C29.2229 8.26873 29.25 8.38357 29.25 8.5C29.25 8.61643 29.2229 8.73127 29.1708 8.83541C29.1187 8.93955 29.0431 9.03014 28.95 9.1ZM23.25 5.5V6.25C23.25 6.44891 23.171 6.63968 23.0303 6.78033C22.8897 6.92098 22.6989 7 22.5 7H11.25V10H22.5C22.6989 10 22.8897 10.079 23.0303 10.2197C23.171 10.3603 23.25 10.5511 23.25 10.75V11.5L27.25 8.5L23.25 5.5Z" fill="#727272"/>
<path d="M15.75 13C15.75 12.8607 15.7888 12.7242 15.862 12.6057C15.9352 12.4872 16.04 12.3915 16.1646 12.3292C16.2892 12.2669 16.4286 12.2405 16.5674 12.253C16.7061 12.2655 16.8386 12.3164 16.95 12.4L22.95 16.9C23.0431 16.9699 23.1188 17.0605 23.1708 17.1646C23.2229 17.2687 23.25 17.3836 23.25 17.5C23.25 17.6164 23.2229 17.7313 23.1708 17.8354C23.1188 17.9396 23.0431 18.0301 22.95 18.1L16.95 22.6C16.8386 22.6836 16.7061 22.7345 16.5674 22.747C16.4286 22.7595 16.2892 22.7331 16.1646 22.6708C16.04 22.6085 15.9352 22.5128 15.862 22.3943C15.7888 22.2758 15.75 22.1393 15.75 22V20.5H4.5C4.30109 20.5 4.11032 20.421 3.96967 20.2803C3.82902 20.1397 3.75 19.9489 3.75 19.75V15.25C3.75 15.0511 3.82902 14.8603 3.96967 14.7197C4.11032 14.579 4.30109 14.5 4.5 14.5H15.75V13ZM5.25 16V19H16.5C16.6989 19 16.8897 19.079 17.0303 19.2197C17.171 19.3603 17.25 19.5511 17.25 19.75V20.5L21.25 17.5L17.25 14.5V15.25C17.25 15.4489 17.171 15.6397 17.0303 15.7803C16.8897 15.921 16.6989 16 16.5 16H5.25Z" fill="#727272"/>
</svg>
