<svg width="76" height="76" fill="none" xmlns="http://www.w3.org/2000/svg"><g clip-path="url(#a)" fill="#051431"><path d="m75.506 62.524-7.62-5.1 1.184-2.263c.21-.402.156-.892-.14-1.238-.09-.107-2.153-2.486-6.853-4.892 1.681-3.66 3.034-7.662 4.045-11.974 3.041-12.975 1.945-24.116 1.896-24.584a1.113 1.113 0 0 0-.993-.993c-8.858-.913-16.078-3.868-20.574-6.185C41.563 2.776 38.74.442 38.714.42a1.113 1.113 0 0 0-1.428 0C37.175.513 25.98 9.726 8.974 11.48a1.113 1.113 0 0 0-.993.993c-.021.21-.523 5.226.042 12.454a1.113 1.113 0 0 0 2.22-.173c-.414-5.287-.233-9.425-.118-11.162 8.813-1.056 15.985-4.014 20.508-6.351 3.686-1.905 6.21-3.682 7.367-4.554 1.156.872 3.68 2.649 7.367 4.554 4.522 2.337 11.694 5.295 20.507 6.35.191 2.886.556 12.4-1.92 22.959-1.071 4.574-2.54 8.779-4.384 12.575-.051.106-.104.21-.157.316a50.5 50.5 0 0 1-1.533 2.862c-.099.17-.199.34-.3.509a45.777 45.777 0 0 1-.946 1.518l-.053.084a45.577 45.577 0 0 1-3.003 4.063l-.015.018a42.024 42.024 0 0 1-.904 1.042l-.081.092c-.153.168-.307.336-.462.502l-.023.025c-3.929 4.2-8.65 7.443-14.093 9.674-5.33-2.186-11.297-5.926-16.358-12.319l-.049-.062c-.102-.129-.203-.26-.304-.391-1.846-2.416-3.484-5.092-4.891-7.998a1.111 1.111 0 0 0-.116-.189c-2.55-5.305-4.529-11.778-5.574-19.68a1.113 1.113 0 0 0-2.207.292c.96 7.25 2.78 13.803 5.422 19.548-4.7 2.407-6.763 4.785-6.854 4.892-.295.346-.35.836-.14 1.238l1.185 2.263-7.62 5.1a1.113 1.113 0 0 0 .083 1.9l6.226 3.425v6.878a1.113 1.113 0 0 0 1.679.958l12.366-7.3.022-.015a1.132 1.132 0 0 0 .101-.072l.03-.024a1.12 1.12 0 0 0 .075-.07l.012-.01a1.09 1.09 0 0 0 .08-.095l.003-.003.005-.008a1.11 1.11 0 0 0 .07-.108l.014-.023c.021-.04.04-.08.057-.123l.008-.021c.013-.037.025-.073.034-.11l.008-.03c.01-.044.017-.088.022-.132l.001-.018c.004-.04.005-.08.004-.12v-.028a1.127 1.127 0 0 0-.014-.137l-.002-.01a1.09 1.09 0 0 0-.092-.283l-1.524-3.182a29.525 29.525 0 0 1 3.212-1.364c4.108 4.193 8.993 7.429 14.615 9.665a1.111 1.111 0 0 0 .823 0c5.611-2.232 10.504-5.471 14.615-9.665 1.23.44 2.297.908 3.212 1.364l-1.525 3.182a1.094 1.094 0 0 0-.09.284c-.002.003-.002.006-.003.01a1.127 1.127 0 0 0-.014.136v.028c-.001.04 0 .08.003.12a1.083 1.083 0 0 0 .023.15l.008.03c.01.037.021.074.035.11l.008.022c.016.042.035.082.057.122l.013.024c.022.036.045.072.07.107l.006.008.002.003c.025.033.052.065.08.095l.012.011c.024.024.049.047.075.07l.03.023a1.116 1.116 0 0 0 .101.072l.023.014 12.366 7.301a1.112 1.112 0 0 0 1.678-.958v-6.878l6.227-3.425a1.113 1.113 0 0 0 .082-1.9ZM9.029 72.777V67.19c0-.405-.221-.779-.577-.975l-5.199-2.86 5.9-3.947 3.914 7.477c.022.04.046.08.072.118l.033.042c.017.022.034.045.053.066l.06.059c.012.012.024.025.037.036.025.021.05.04.078.06.01.007.018.015.028.021.03.02.061.038.093.056l.022.012a1.098 1.098 0 0 0 .252.093c.024.006.048.014.072.018l3.23.548-8.068 4.763Zm7.551-7.109.08-.057.176-.126.115-.079.189-.129.12-.08.207-.136.08-.05c.08-.052.16-.103.245-.155l.02-.012.538 1.125-1.77-.3Zm1.17-3.366-.01.005-.027.016a19.435 19.435 0 0 0-.405.23c-.05.028-.1.056-.148.085l-.016.01-.023.012a24.91 24.91 0 0 0-.39.234l-.058.036-.226.141-.047.03-.005.004a20.358 20.358 0 0 0-2.03 1.46l-3.641-6.955-1.447-2.764c.81-.764 2.609-2.267 5.617-3.812.115.226.232.45.35.673l.182.338c.153.285.309.568.467.848l.104.19a46.804 46.804 0 0 0 4.376 6.407l.182.221.311.374c.156.185.313.368.471.549a29.946 29.946 0 0 0-3.586 1.668Zm36.913-1.668a.092.092 0 0 1 .007-.009l.286-.332.173-.202c.145-.171.288-.345.431-.518l.015-.018a44.762 44.762 0 0 0 2.01-2.648c.085-.122.166-.246.25-.369a44.038 44.038 0 0 0 1.635-2.549 45.925 45.925 0 0 0 .702-1.213l.2-.358a51.608 51.608 0 0 0 .626-1.175c.036-.07.073-.139.108-.209 2.987 1.537 4.798 3.048 5.615 3.815l-5.086 9.716a20.36 20.36 0 0 0-2.03-1.46L59.6 63.1l-.047-.03a21.511 21.511 0 0 0-.225-.14l-.075-.045c-.121-.075-.246-.15-.374-.226l-.023-.013-.016-.01-.148-.085a31.56 31.56 0 0 0-.254-.145l-.14-.078-.01-.006-.029-.016-.01-.005a29.993 29.993 0 0 0-3.586-1.668Zm3.306 4.669.22-.459.02.012.244.154.08.051c.072.046.14.091.207.137.04.026.082.053.12.08.066.043.127.086.19.129l.114.08c.06.04.116.081.173.122l.083.06-1.77.3.32-.666Zm9.579.912c-.356.196-.577.57-.577.975v5.587l-8.068-4.763 3.23-.548.034-.009a1.124 1.124 0 0 0 .342-.13l.05-.031c.024-.016.046-.033.069-.05.014-.012.03-.022.043-.034.024-.02.045-.042.067-.064l.034-.034c.025-.028.048-.058.07-.088l.018-.023a1.1 1.1 0 0 0 .072-.119l3.915-7.477 5.9 3.948-5.2 2.86Z"/><path d="M61.131 18.087a1.113 1.113 0 0 0-.993-.993c-12.84-1.325-21.34-8.296-21.424-8.366a1.114 1.114 0 0 0-1.427 0c-.084.07-8.586 7.041-21.425 8.366a1.113 1.113 0 0 0-.993.993c-.021.206-.511 5.13.253 11.853.709 6.228 2.683 15.209 8.065 22.627a1.112 1.112 0 1 0 1.801-1.307c-5.086-7.011-6.966-15.572-7.648-21.518-.56-4.876-.426-8.844-.323-10.54 11.019-1.37 18.678-6.492 20.983-8.21 2.305 1.719 9.963 6.84 20.984 8.21.076 1.24.168 3.693-.009 6.834a1.113 1.113 0 0 0 2.223.125c.267-4.749-.053-7.94-.067-8.074ZM59.816 29.504a1.113 1.113 0 0 0-1.244.964C56.095 50.043 46.112 58.162 38 61.52c-3.92-1.622-7.358-3.95-10.223-6.924a1.113 1.113 0 1 0-1.603 1.545c3.186 3.307 7.027 5.87 11.415 7.615a1.112 1.112 0 0 0 .822 0c7.175-2.855 12.79-7.824 16.69-14.77 2.889-5.144 4.799-11.28 5.68-18.238a1.113 1.113 0 0 0-.965-1.244Z"/><path d="M50.444 26.802a3.903 3.903 0 0 0-5.512 0l-9.913 9.913-3.578-3.578a3.902 3.902 0 0 0-5.513 0 3.903 3.903 0 0 0 0 5.513l6.335 6.334a3.871 3.871 0 0 0 2.756 1.142c1.041 0 2.02-.406 2.756-1.142l12.67-12.669a3.903 3.903 0 0 0 0-5.513Zm-1.573 3.94L36.2 43.41c-.315.316-.735.49-1.182.49-.446 0-.866-.174-1.182-.49l-6.335-6.334a1.674 1.674 0 0 1 0-2.365 1.667 1.667 0 0 1 1.183-.489c.428 0 .856.163 1.182.489l4.365 4.365a1.112 1.112 0 0 0 1.574 0l10.7-10.7a1.674 1.674 0 0 1 2.365 0 1.674 1.674 0 0 1 0 2.365Z"/></g><defs><clipPath id="a"><path fill="#fff" d="M0 0h76v76H0z"/></clipPath></defs></svg>