<svg width="49" height="48" fill="none" xmlns="http://www.w3.org/2000/svg">
  <g clip-path="url(#a)" fill="#64C01C">
    <path d="M24.5 0C11.27 0 .5 10.77.5 24s10.77 24 24 24 24-10.77 24-24-10.77-24-24-24Zm0 45.4A21.34 21.34 0 0 1 5.53 33.92 21.43 21.43 0 0 1 24.5 2.6a21.52 21.52 0 0 1 19.31 12.18A21.43 21.43 0 0 1 24.5 45.4Z"/>
    <path d="M16.66 21.24a2.6 2.6 0 1 0 0-5.19 2.6 2.6 0 0 0 0 5.2ZM32.72 21.24a2.6 2.6 0 1 0 0-5.19 2.6 2.6 0 0 0 0 5.2ZM24.45 37.3c5.02 0 9.83-2.57 12.59-6.83l-2.18-1.41a12.43 12.43 0 0 1-11.79 5.56 12.45 12.45 0 0 1-8.93-5.56l-2.18 1.4a15.07 15.07 0 0 0 12.5 6.84Z"/>
  </g>
  <defs>
    <clipPath id="a">
      <path fill="#fff" transform="translate(.5)" d="M0 0h48v48H0z"/>
    </clipPath>
  </defs>
</svg>
