<svg width="64" height="64" viewBox="0 0 64 64" fill="none" xmlns="http://www.w3.org/2000/svg">
<path d="M8.53373 20.2641V8.53079H20.2671C21.6793 8.53079 21.6772 6.39746 20.2671 6.39746H7.46706C6.87826 6.39746 6.40039 6.87533 6.40039 7.46413V20.2641C6.40039 21.6764 8.53373 21.6743 8.53373 20.2641Z" fill="black"/>
<path d="M20.2671 55.4685H8.53373V43.7352C8.53373 42.3229 6.40039 42.325 6.40039 43.7352V56.5352C6.40039 57.124 6.87826 57.6018 7.46706 57.6018H20.2671C21.6793 57.6018 21.6772 55.4685 20.2671 55.4685Z" fill="black"/>
<path d="M57.6008 7.46413C57.6008 6.87533 57.123 6.39746 56.5342 6.39746H43.7342C42.3219 6.39746 42.324 8.53079 43.7342 8.53079H55.4675V20.2641C55.4675 21.6764 57.6008 21.6743 57.6008 20.2641V7.46413Z" fill="black"/>
<path d="M55.4675 43.7352V55.4685H43.7342C42.3219 55.4685 42.324 57.6018 43.7342 57.6018H56.5342C57.123 57.6018 57.6008 57.124 57.6008 56.5352V43.7352C57.6008 42.3229 55.4675 42.325 55.4675 43.7352Z" fill="black"/>
<path d="M17.0664 20.2644C17.0664 20.8532 17.5443 21.3311 18.1331 21.3311H20.2664C20.8552 21.3311 21.3331 20.8532 21.3331 20.2644V18.1311C21.3331 17.5423 20.8552 17.0645 20.2664 17.0645H18.1331C17.5443 17.0645 17.0664 17.5423 17.0664 18.1311V20.2644Z" fill="black"/>
<path d="M13.8674 12.7979C13.2786 12.7979 12.8008 13.2757 12.8008 13.8645V24.5312C12.8008 25.12 13.2786 25.5978 13.8674 25.5978H24.5341C25.1229 25.5978 25.6008 25.12 25.6008 24.5312V13.8645C25.6008 13.2757 25.1229 12.7979 24.5341 12.7979H13.8674ZM14.9341 14.9312H23.4674V23.4645H14.9341V14.9312Z" fill="black"/>
<path d="M21.3331 43.7307C21.3331 43.1419 20.8552 42.6641 20.2664 42.6641H18.1331C17.5443 42.6641 17.0664 43.1419 17.0664 43.7307V45.8641C17.0664 46.4529 17.5443 46.9307 18.1331 46.9307H20.2664C20.8552 46.9307 21.3331 46.4529 21.3331 45.8641V43.7307Z" fill="black"/>
<path d="M25.6008 39.4641C25.6008 38.8753 25.1229 38.3975 24.5341 38.3975H13.8674C13.2786 38.3975 12.8008 38.8753 12.8008 39.4641V50.1308C12.8008 50.7196 13.2786 51.1975 13.8674 51.1975H24.5341C25.1229 51.1975 25.6008 50.7196 25.6008 50.1308V39.4641ZM23.4674 49.0641H14.9341V40.5308H23.4674V49.0641Z" fill="black"/>
<path d="M42.668 20.2644C42.668 20.8532 43.1458 21.3311 43.7346 21.3311H45.868C46.4568 21.3311 46.9346 20.8532 46.9346 20.2644V18.1311C46.9346 17.5423 46.4568 17.0645 45.868 17.0645H43.7346C43.1458 17.0645 42.668 17.5423 42.668 18.1311V20.2644Z" fill="black"/>
<path d="M38.4004 24.5312C38.4004 25.12 38.8783 25.5978 39.4671 25.5978H50.1337C50.7225 25.5978 51.2004 25.12 51.2004 24.5312V13.8645C51.2004 13.2757 50.7225 12.7979 50.1337 12.7979H39.4671C38.8783 12.7979 38.4004 13.2757 38.4004 13.8645V24.5312ZM40.5337 14.9312H49.067V23.4645H40.5337V14.9312Z" fill="black"/>
<path d="M20.2674 36.2638C20.4999 36.2638 29.1165 36.2638 28.8007 36.2638C30.213 36.2638 30.2109 34.1305 28.8007 34.1305H25.6007V30.9305C25.6007 29.5182 23.4674 29.5203 23.4674 30.9305V34.1305H20.2674C18.8551 34.1305 18.8573 36.2638 20.2674 36.2638Z" fill="black"/>
<path d="M29.8677 15.9974V13.8641C29.8677 12.4518 27.7344 12.4539 27.7344 13.8641V15.9974C27.7344 17.4097 29.8677 17.4075 29.8677 15.9974Z" fill="black"/>
<path d="M28.8006 21.3307H33.0673C33.6561 21.3307 34.1339 20.8528 34.1339 20.264V17.064H35.2006C36.6129 17.064 36.6107 14.9307 35.2006 14.9307H33.0673C32.4785 14.9307 32.0006 15.4085 32.0006 15.9973V19.1973H28.8006C27.3883 19.1973 27.3905 21.3307 28.8006 21.3307Z" fill="black"/>
<path d="M28.8006 31.9972H33.0673C34.4795 31.9972 34.4774 29.8639 33.0673 29.8639H32.0006V25.5972H35.2006C36.6129 25.5972 36.6107 23.4639 35.2006 23.4639H30.9339C30.3451 23.4639 29.8673 23.9417 29.8673 24.5305V29.8639H28.8006C27.3883 29.8639 27.3905 31.9972 28.8006 31.9972Z" fill="black"/>
<path d="M36.2676 30.931C36.2676 32.3433 38.4009 32.3411 38.4009 30.931V28.7977C38.4009 27.3854 36.2676 27.3875 36.2676 28.7977V30.931Z" fill="black"/>
<path d="M29.8677 42.6642H32.001V43.7309C32.001 45.1431 34.1344 45.141 34.1344 43.7309V37.3309C34.1344 35.9186 32.001 35.9207 32.001 37.3309V40.5309H28.801C28.2122 40.5309 27.7344 41.0087 27.7344 41.5975V43.7309C27.7344 45.1431 29.8677 45.141 29.8677 43.7309V42.6642Z" fill="black"/>
<path d="M38.4001 43.7313V44.7979H37.3334C36.7446 44.7979 36.2667 45.2758 36.2667 45.8646V49.0646H30.9334C29.5211 49.0646 29.5233 51.1979 30.9334 51.1979H37.3334C37.9222 51.1979 38.4001 50.7201 38.4001 50.1313V46.9313H39.4667C40.0555 46.9313 40.5334 46.4534 40.5334 45.8646V43.7313C40.5334 42.319 38.4001 42.3211 38.4001 43.7313Z" fill="black"/>
<path d="M44.8008 45.8641V49.0641H43.7342C42.3219 49.0641 42.324 51.1974 43.7342 51.1974H50.1342C51.5465 51.1974 51.5443 49.0641 50.1342 49.0641H46.9342V45.8641C46.9342 44.4518 44.8008 44.4539 44.8008 45.8641Z" fill="black"/>
<path d="M51.2008 39.4641C51.2008 38.8753 50.723 38.3975 50.1342 38.3975H43.7342C42.3219 38.3975 42.324 40.5308 43.7342 40.5308H49.0675V43.735C49.0675 45.1473 51.2008 45.1452 51.2008 43.735V39.4641Z" fill="black"/>
<path d="M51.1998 30.9305C51.1998 29.5182 49.0665 29.5203 49.0665 30.9305V34.1305H47.9998C46.5875 34.1305 46.5897 36.2638 47.9998 36.2638H50.1331C50.7219 36.2638 51.1998 35.7859 51.1998 35.1971V30.9305Z" fill="black"/>
<path d="M44.8004 35.1971V29.8638H45.8671C47.2794 29.8638 47.2772 27.7305 45.8671 27.7305H43.7338C43.145 27.7305 42.6671 28.2083 42.6671 28.7971V34.1305H39.4671C38.8783 34.1305 38.4005 34.6083 38.4005 35.1971V38.3971H37.3338C35.9215 38.3971 35.9237 40.5305 37.3338 40.5305H39.4671C40.0559 40.5305 40.5338 40.0526 40.5338 39.4638V36.2638H43.7338C44.3226 36.2638 44.8004 35.7859 44.8004 35.1971Z" fill="black"/>
<path d="M12.8008 28.7977C12.8008 29.1155 12.8008 35.507 12.8008 35.1977C12.8008 36.6099 14.9341 36.6078 14.9341 35.1977V31.9977H18.1341C19.5464 31.9977 19.5443 29.8643 18.1341 29.8643H14.9341V28.7977C14.9341 27.3854 12.8008 27.3875 12.8008 28.7977Z" fill="black"/>
</svg>
